<svg width="512" height="512" viewBox="0 0 512 512" fill="none" xmlns="http://www.w3.org/2000/svg">
  <defs>
    <filter id="glow" x="-50%" y="-50%" width="200%" height="200%">
      <feGaussianBlur stdDeviation="4" result="coloredBlur"/>
      <feMerge>
        <feMergeNode in="coloredBlur"/>
        <feMergeNode in="SourceGraphic"/>
      </feMerge>
    </filter>
  </defs>

  <!-- Background -->
  <circle cx="256" cy="256" r="256" fill="#080808" />
  
  <!-- Rim Light -->
  <circle cx="256" cy="256" r="252" stroke="#FF3355" stroke-width="2" opacity="0.6" filter="url(#glow)" />
  
  <!-- Content: Sovereign V1 -->
  <g transform="translate(128, 128) scale(0.5)">
     <!-- Primary: #525252, Secondary: #262626, Shadow: #000000, BG: #080808 -->
     <path d="M100 50 L200 50 L200 462 L100 462 L50 256 Z" fill="#525252" stroke="#080808" stroke-width="4" />
     <path d="M210 50 L412 150 L350 250 L210 250 Z" fill="#262626" stroke="#080808" stroke-width="4" />
     <path d="M210 262 L350 262 L412 362 L210 462 Z" fill="#262626" stroke="#080808" stroke-width="4" />
     
     <!-- Inner Facets -->
     <path d="M210 50 L210 250 L300 150 Z" fill="#000000" />
     <path d="M210 462 L210 262 L300 362 Z" fill="#000000" />
     
     <!-- The "21" Core - Core: #FF0033 -->
     <g transform="scale(1.3) translate(-50, -60)">
       <path 
         d="M230 210 L270 210 L270 225 L245 250 L270 250 L270 270 L230 270 L230 255 L255 230 L230 230 Z" 
         fill="#FF0033" 
         filter="url(#glow)" 
         stroke="#080808"
         stroke-width="2"
       />
       <path 
         d="M285 210 L305 210 L305 270 L285 270 Z" 
         fill="#FF0033" 
         filter="url(#glow)"
         stroke="#080808"
         stroke-width="2"
       />
     </g>
  </g>
</svg>